<svg xmlns="http://www.w3.org/2000/svg" xmlns:xlink="http://www.w3.org/1999/xlink" viewBox="0 0 48 48" version="1.1">
<g id="surface1">
<path style=" fill:#009688;" d="M 4 10 L 44 10 L 44 35 L 4 35 Z "></path>
<path style=" fill:#00796B;" d="M 41 14 L 41 35 L 7 35 L 7 14 M 44 12 L 4 12 L 4 35 L 44 35 Z "></path>
<path style=" fill:#DD7C12;" d="M 42 12 L 42 35 L 6 35 L 6 12 L 42 12 M 44 10 L 4 10 L 4 35 L 44 35 Z "></path>
<path style=" fill:#773D04;" d="M 46 38 L 46 36 C 46 34.894531 45.105469 34 44 34 L 4 34 C 2.894531 34 2 34.894531 2 36 L 2 38 Z "></path>
<path style="fill:none;stroke-width:2;stroke-linecap:butt;stroke-linejoin:miter;stroke:#FFFFFF;stroke-opacity:1;stroke-miterlimit:4;" d="M 12 26 L 19 21 L 28 28 L 37 17 "></path>
<path style=" fill:#FFFFFF;" d="M 19 34 L 12 34 L 12 32 L 19 32 L 20 33 Z "></path>
</g>
</svg>