<svg xmlns="http://www.w3.org/2000/svg" xmlns:xlink="http://www.w3.org/1999/xlink" viewBox="0 0 48 48" version="1.1">
<g id="surface1">
<path style=" fill:#3E2723;" d="M 27 13.25 L 39 13.25 L 39 26.980469 L 27 26.980469 Z "></path>
<path style=" fill:#2196F3;" d="M 36.75 26 C 36.75 26 34.53125 25.6875 33 25.6875 C 31.46875 25.6875 29.25 26 29.25 26 C 29.25 26 21 27.527344 21 36 L 45 36 C 45 27.558594 36.75 26 36.75 26 "></path>
<path style=" fill:#EF8D3C;" d="M 33 29.75 C 31.5625 29.75 29.5 26 29.5 26 L 29.5 21 L 36.5 21 L 36.5 26 C 36.5 26 34.4375 29.75 33 29.75 "></path>
<path style=" fill:#FFAA45;" d="M 40 18 C 40 21.726563 36.726563 25 33 25 C 29.269531 25 26 21.726563 26 18 L 26 12 C 26 8.273438 40 6.273438 40 12 Z M 33 31 C 35.902344 31 36.5 26 36.5 26 C 36.5 26 34.636719 29 33 29 C 31.363281 29 29.5 26 29.5 26 C 29.5 26 30.097656 31 33 31 "></path>
<path style=" fill:#0D47A1;" d="M 33 33 C 36.550781 33 38.066406 29.066406 38.441406 26.53125 C 37.457031 26.140625 36.75 26 36.75 26 C 36.75 26 36.648438 25.984375 36.5 25.96875 L 36.5 26 C 36.5 26 35.902344 31 33 31 C 30.097656 31 29.5 26 29.5 26 L 29.5 25.96875 C 29.351563 25.984375 29.25 26 29.25 26 C 29.25 26 28.542969 26.136719 27.554688 26.527344 C 27.933594 29.0625 29.445313 33 33 33 Z "></path>
<path style=" fill:#784719;" d="M 35 17 C 35 16.449219 35.449219 16 36 16 C 36.550781 16 37 16.449219 37 17 C 37 17.550781 36.550781 18 36 18 C 35.449219 18 35 17.550781 35 17 M 29 17 C 29 17.550781 29.449219 18 30 18 C 30.550781 18 31 17.550781 31 17 C 31 16.449219 30.550781 16 30 16 C 29.449219 16 29 16.449219 29 17 "></path>
<path style=" fill:#4E342E;" d="M 33 6 C 28.445313 6 22 8.089844 22 23 L 27 26.980469 L 27 16 L 36 11 L 39 15 L 39 27 L 44 22 C 44 18.980469 43.746094 7.5 36 7.5 L 35 6 Z "></path>
<path style=" fill:#FFA726;" d="M 23 23.5 C 23 24.328125 22.328125 25 21.5 25 C 20.671875 25 20 24.328125 20 23.5 C 20 22.671875 20.671875 22 21.5 22 C 22.328125 22 23 22.671875 23 23.5 M 10 23.5 C 10 22.671875 9.328125 22 8.5 22 C 7.671875 22 7 22.671875 7 23.5 C 7 24.328125 7.671875 25 8.5 25 C 9.328125 25 10 24.328125 10 23.5 "></path>
<path style=" fill:#FF9800;" d="M 19 32 C 19 32 19 36 15 36 C 11 36 11 32 11 32 "></path>
<path style=" fill:#4FC3F7;" d="M 18.75 32 L 15 32.769531 L 11.25 32 C 11.25 32 3 33.527344 3 42 L 27 42 C 27 33.558594 18.75 32 18.75 32 "></path>
<path style=" fill:#FF9800;" d="M 15 36 C 11 36 11 32 11 32 L 11 28 L 19 28 L 19 32 C 19 32 19 36 15 36 Z "></path>
<path style=" fill:#FFB74D;" d="M 22 19.679688 C 22 13.800781 8 15.851563 8 19.679688 L 8 24.070313 C 8 27.894531 11.132813 31 15 31 C 18.867188 31 22 27.894531 22 24.070313 Z "></path>
<path style=" fill:#01579B;" d="M 15 38 C 18.058594 38 20.578125 35.707031 20.949219 32.75 C 20.0625 32.351563 19.34375 32.144531 18.992188 32.058594 C 18.964844 34.238281 17.191406 36 15 36 C 12.808594 36 11.035156 34.238281 11.007813 32.054688 C 10.652344 32.140625 9.933594 32.347656 9.050781 32.742188 C 9.417969 35.703125 11.9375 38 15 38 Z "></path>
<path style=" fill:#795548;" d="M 15 12 C 10.140625 12 7 16.3125 7 20.171875 L 7 22 L 9 24 L 9 20 L 18.199219 17 L 21 20 L 21 24 L 23 22 L 23 21.191406 C 23 17.972656 22.167969 14.386719 18.199219 13.597656 L 17.398438 12 Z "></path>
<path style=" fill:#784719;" d="M 17 23 C 17 22.449219 17.449219 22 18 22 C 18.550781 22 19 22.449219 19 23 C 19 23.550781 18.550781 24 18 24 C 17.449219 24 17 23.550781 17 23 M 11 23 C 11 23.550781 11.449219 24 12 24 C 12.550781 24 13 23.550781 13 23 C 13 22.449219 12.550781 22 12 22 C 11.449219 22 11 22.449219 11 23 "></path>
</g>
</svg>