<svg xmlns="http://www.w3.org/2000/svg" xmlns:xlink="http://www.w3.org/1999/xlink" viewBox="0 0 48 48" version="1.1">
<g id="surface1">
<path style=" fill:#5D4037;" d="M 12.988281 16.015625 L 34.988281 15.988281 L 35.015625 36.988281 L 13.015625 37.015625 Z "></path>
<path style=" fill:#D7CCC8;" d="M 10 19 L 13 19 L 13 35 L 10 35 Z "></path>
<path style=" fill:#D7CCC8;" d="M 21 19 L 18 19.007813 L 18.015625 35.007813 L 21 35.003906 Z "></path>
<path style=" fill:#D7CCC8;" d="M 30 19 L 27 18.996094 L 27.015625 34.996094 L 30 35 Z "></path>
<path style=" fill:#D7CCC8;" d="M 35 19 L 38 19 L 38 35 L 35 35 Z "></path>
<path style=" fill:#8D6E63;" d="M 40 16.984375 C 40 17.535156 39.554688 18 39 18 L 9.003906 18 C 8.453125 18 8.003906 17.574219 8.003906 17.023438 L 8 14.035156 C 8 13.484375 8.445313 13.035156 8.996094 13.035156 L 38.996094 13 C 39.550781 13 39.992188 13.445313 39.996094 13.996094 Z "></path>
<path style=" fill:#BCAAA4;" d="M 42 42 L 6.023438 42 L 6 39 L 42 39 Z "></path>
<path style=" fill:#BCAAA4;" d="M 13.992188 18.011719 L 13.992188 19.011719 C 13.996094 19.566406 13.546875 20 12.996094 20 L 9.996094 20 C 9.441406 20 9 19.570313 9 19.019531 L 9 18.019531 Z "></path>
<path style=" fill:#BCAAA4;" d="M 22 18 L 22 18.992188 C 22 19.546875 21.554688 20 21 20 L 18 20 C 17.449219 20 17 19.554688 17 19 L 17 18 Z "></path>
<path style=" fill:#BCAAA4;" d="M 30.992188 18 L 30.992188 18.992188 C 30.992188 19.542969 30.546875 20 29.996094 20 L 26.996094 20 C 26.441406 20 26 19.550781 26 18.996094 L 26 18 Z "></path>
<path style=" fill:#BCAAA4;" d="M 39 18 L 39 18.980469 C 39 19.535156 38.546875 20 37.996094 20 L 34.996094 20 C 34.441406 20 34 19.539063 34 18.988281 L 34 18 Z "></path>
<path style=" fill:#BCAAA4;" d="M 14 36.011719 L 14 35.011719 C 14 34.460938 13.5625 34 13.011719 34 L 10.011719 34 C 9.460938 34 9 34.464844 9 35.019531 L 9 36.019531 Z "></path>
<path style=" fill:#BCAAA4;" d="M 22 36 L 22 35.003906 C 22 34.449219 21.5625 34.003906 21.011719 34.003906 L 18.011719 34.007813 C 17.460938 34.007813 17.011719 34.457031 17.011719 35.007813 L 17.015625 36 Z "></path>
<path style=" fill:#BCAAA4;" d="M 31 36 L 31 34.992188 C 31 34.4375 30.550781 34 29.996094 34 L 26.996094 34 C 26.445313 34 26 34.445313 26 34.996094 L 26 36 Z "></path>
<path style=" fill:#BCAAA4;" d="M 39 36 L 39 34.980469 C 38.996094 34.429688 38.550781 34 37.996094 34 L 34.996094 34 C 34.445313 34 34 34.433594 34 34.988281 L 34 36 Z "></path>
<path style=" fill:#BCAAA4;" d="M 42 14 L 23.976563 6 L 6 14.019531 L 6 16 L 42 16 Z "></path>
<path style=" fill:#A1887F;" d="M 8.015625 36 L 39.996094 36 L 39.996094 39 L 8.015625 39 Z "></path>
<path style=" fill:#A1887F;" d="M 10.988281 14 L 36.988281 14 L 23.980469 8 Z "></path>
</g>
</svg>