<svg xmlns="http://www.w3.org/2000/svg" xmlns:xlink="http://www.w3.org/1999/xlink" viewBox="0 0 48 48" version="1.1">
<g id="surface1">
<path style=" fill:#2E7D32;" d="M 6 6 L 17 6 L 17 42 L 6 42 Z "></path>
<path style=" fill:#1565C0;" d="M 31 6 L 42 6 L 42 42 L 31 42 Z "></path>
<path style=" fill:#FFC107;" d="M 19 11 L 29 11 L 29 42 L 19 42 Z "></path>
<path style=" fill:#7CB342;" d="M 6 12 L 17 12 L 17 14 L 6 14 Z "></path>
<path style=" fill:#7CB342;" d="M 6 34 L 17 34 L 17 36 L 6 36 Z "></path>
<path style=" fill:#7CB342;" d="M 10 17 L 13 17 L 13 31 L 10 31 Z "></path>
<path style=" fill:#64B5F6;" d="M 31 12 L 42 12 L 42 14 L 31 14 Z "></path>
<path style=" fill:#64B5F6;" d="M 31 34 L 42 34 L 42 36 L 31 36 Z "></path>
<path style=" fill:#64B5F6;" d="M 35 17 L 38 17 L 38 31 L 35 31 Z "></path>
<path style=" fill:#FF8F00;" d="M 19 15 L 29 15 L 29 17 L 19 17 Z "></path>
<path style=" fill:#FF8F00;" d="M 19 36 L 29 36 L 29 38 L 19 38 Z "></path>
<path style=" fill:#FF8F00;" d="M 23 20 L 25 20 L 25 33 L 23 33 Z "></path>
</g>
</svg>