<svg xmlns="http://www.w3.org/2000/svg" xmlns:xlink="http://www.w3.org/1999/xlink" viewBox="0 0 48 48" version="1.1">
<g id="surface1">
<path style=" fill:#37474F;" d="M 9 20 L 39 20 L 39 33 L 9 33 Z "></path>
<path style=" fill:#37474F;" d="M 39 33 C 39 29.6875 32.285156 27 24 27 C 15.714844 27 9 29.6875 9 33 C 9 36.3125 15.714844 39 24 39 C 32.285156 39 39 36.3125 39 33 Z "></path>
<path style=" fill:#78909C;" d="M 23.101563 8.199219 L 0.601563 18.101563 C -0.199219 18.5 -0.199219 19.601563 0.601563 20 L 23.101563 29.898438 C 23.699219 30.101563 24.300781 30.101563 24.898438 29.898438 L 47.398438 20 C 48.199219 19.601563 48.199219 18.5 47.398438 18.101563 L 24.898438 8.199219 C 24.300781 7.898438 23.699219 7.898438 23.101563 8.199219 Z "></path>
<path style=" fill:#37474F;" d="M 43.199219 20.398438 L 23.199219 17 C 22.699219 16.898438 22.101563 17.300781 22 17.800781 C 21.898438 18.300781 22.300781 18.898438 22.800781 19 L 42 22.199219 L 42 37 C 42 37.601563 42.398438 38 43 38 C 43.601563 38 44 37.601563 44 37 L 44 21.398438 C 44 20.898438 43.601563 20.5 43.199219 20.398438 Z "></path>
<path style=" fill:#37474F;" d="M 45 37 C 45 38.105469 44.105469 39 43 39 C 41.894531 39 41 38.105469 41 37 C 41 35.894531 41.894531 35 43 35 C 44.105469 35 45 35.894531 45 37 Z "></path>
<path style=" fill:#37474F;" d="M 46 40 C 46 41.699219 43 46 43 46 C 43 46 40 41.699219 40 40 C 40 38.300781 41.300781 37 43 37 C 44.699219 37 46 38.300781 46 40 Z "></path>
</g>
</svg>